#N canvas 96 195 1140 767 10;
#X declare -path purest_json;
#X obj 722 507 sound_engine/virus_sound_engine;
#X obj 727 486 s pd;
#X msg 727 444 midi-properties;
#X msg 738 464 audio-properties;
#X obj 86 268 bng 15 250 50 0 empty empty empty 17 7 0 10 -262144 -1
-1;
#X obj 41 195 hsl 128 15 0 1 0 1 master_grain_size master_grain_size_rcv
master_grain_size -2 -8 0 10 -262144 -1 -1 2300 1;
#X obj 508 527 hsl 128 15 0 1 0 1 master_random_panning empty master_random_panning
-2 -8 0 10 -262144 -1 -1 0 1;
#X obj 507 565 hsl 128 15 0 1 0 1 master_offset_random empty master_offset_random
-2 -8 0 10 -262144 -1 -1 12700 1;
#X obj 722 530 declare -path purest_json;
#X obj 722 553 clone led_flash 8;
#X obj 509 605 hsl 128 15 0 1 0 1 master_volume empty master_volume
-2 -8 0 10 -262144 -1 -1 10700 1;
#N canvas 0 23 614 441 deathIncrease 1;
#X obj 63 155 json-decode;
#X obj 62 116 rest;
#X msg 67 71 GET https://api.covidtracking.com/v1/us/current.json;
#X obj 94 216 list trim;
#X obj 106 255 route deathIncrease;
#X floatatom 146 290 5 0 0 0 - - -;
#X obj 108 33 loadbang;
#X obj 45 38 inlet;
#X obj 126 378 outlet;
#X obj 162 354 s deathIncrease_rcv;
#X obj 339 341 print deathIncrease;
#X connect 0 0 3 0;
#X connect 1 0 0 0;
#X connect 2 0 1 0;
#X connect 3 0 4 0;
#X connect 4 0 5 0;
#X connect 5 0 8 0;
#X connect 5 0 9 0;
#X connect 5 0 10 0;
#X connect 6 0 2 0;
#X connect 7 0 2 0;
#X restore 728 605 pd deathIncrease;
#X obj 729 577 bng 15 250 50 0 empty empty empty 17 7 0 10 -262144
-1 -1;
#X obj 22 38 nbx 5 25 -1e+37 1e+37 0 0 deathIncrease deathIncrease_rcv
deathIncrease 0 -8 0 20 -262144 -1 -1 327 256;
#X obj 29 103 bng 40 250 50 0 playDeaths playDeaths_rcv playDeaths
0 45 0 10 -262144 -1 -1;
#X obj 86 248 r playDeath;
#X obj 85 296 random 8;
#X text 154 45 9/17 the number was 1202;
#X obj 472 19 notein;
#X obj 465 85 sel 54;
#X obj 464 108 bng 15 250 50 0 empty empty empty 17 7 0 10 -262144
-1 -1;
#X obj 463 61 stripnote;
#X obj 464 128 s playDeaths_rcv;
#X obj 102 113 nbx 5 25 -1e+37 1e+37 0 1 timing timing_rcv timing 0
-8 0 20 -262144 -1 -1 75 256;
#X obj 461 154 ctlin 16;
#X obj 476 243 ctlin 17;
#X obj 461 175 / 127;
#X obj 463 204 s master_grain_size_rcv;
#X obj 477 274 + 15;
#X obj 477 295 s timing_rcv;
#X obj 91 411 send;
#X msg 111 354 \$1_play_one_grain;
#X obj 111 376 symbol \$1;
#X obj 89 325 t b f;
#N canvas 524 43 377 427 playbackCounter 0;
#X obj 71 131 metro 1000;
#X obj 129 111 r timing;
#X obj 71 181 +;
#X msg 70 154 1;
#X floatatom 71 202 5 0 0 0 - - -;
#X obj 58 93 tgl 15 0 empty empty empty 17 7 0 10 -262144 -1 -1 0 1
;
#X obj 70 256 ==;
#X obj 91 230 r deathIncrease;
#X obj 67 284 sel 1;
#X msg 61 313 0;
#X obj 15 140 sel 0;
#X msg 15 161 0;
#X obj 109 160 bng 15 250 50 0 empty empty empty 17 7 0 10 -262144
-1 -1;
#X msg 65 72 1;
#X obj 61 36 r playDeaths;
#X obj 110 183 s playDeath;
#X connect 0 0 3 0;
#X connect 0 0 12 0;
#X connect 1 0 0 1;
#X connect 2 0 4 0;
#X connect 3 0 2 0;
#X connect 4 0 2 1;
#X connect 4 0 6 0;
#X connect 5 0 0 0;
#X connect 5 0 10 0;
#X connect 6 0 8 0;
#X connect 7 0 6 1;
#X connect 8 0 9 0;
#X connect 9 0 5 0;
#X connect 10 0 11 0;
#X connect 11 0 4 0;
#X connect 12 0 15 0;
#X connect 13 0 5 0;
#X connect 14 0 13 0;
#X restore 840 553 pd playbackCounter;
#X connect 2 0 1 0;
#X connect 3 0 1 0;
#X connect 4 0 16 0;
#X connect 12 0 11 0;
#X connect 15 0 4 0;
#X connect 16 0 33 0;
#X connect 18 0 21 0;
#X connect 18 1 21 1;
#X connect 19 0 20 0;
#X connect 20 0 22 0;
#X connect 21 0 19 0;
#X connect 24 0 26 0;
#X connect 25 0 28 0;
#X connect 26 0 27 0;
#X connect 28 0 29 0;
#X connect 31 0 32 0;
#X connect 32 0 30 1;
#X connect 33 0 30 0;
#X connect 33 1 31 0;
