#N canvas 141 23 1140 767 10;
#X declare -path purest_json;
#X obj 722 507 sound_engine/virus_sound_engine;
#X obj 727 486 s pd;
#X msg 727 444 midi-properties;
#X msg 738 464 audio-properties;
#X obj 86 268 bng 15 250 50 0 empty empty empty 17 7 0 10 -262144 -1
-1;
#X obj 41 195 hsl 128 15 0 1 0 1 master_grain_size master_grain_size_rcv
master_grain_size -2 -8 0 10 -262144 -1 -1 2300 1;
#X obj 508 527 hsl 128 15 0 1 0 1 master_random_panning empty master_random_panning
-2 -8 0 10 -262144 -1 -1 10700 1;
#X obj 507 565 hsl 128 15 0 1 0 1 master_offset_random empty master_offset_random
-2 -8 0 10 -262144 -1 -1 12700 1;
#X obj 722 530 declare -path purest_json;
#X obj 722 553 clone led_flash 8;
#X obj 509 605 hsl 128 15 0 1 0 1 master_volume empty master_volume
-2 -8 0 10 -262144 -1 -1 10700 1;
#N canvas 794 23 614 441 deathIncrease 0;
#X obj 63 155 json-decode;
#X obj 62 116 rest;
#X msg 67 71 GET https://api.covidtracking.com/v1/us/current.json;
#X obj 94 216 list trim;
#X obj 106 255 route deathIncrease;
#X floatatom 146 290 5 0 0 0 - - -;
#X obj 108 33 loadbang;
#X obj 45 38 inlet;
#X obj 126 378 outlet;
#X obj 162 354 s deathIncrease_rcv;
#X obj 339 341 print deathIncrease;
#X obj 397 400 t b;
#X obj 397 421 s playDeaths_rcv;
#X connect 0 0 3 0;
#X connect 1 0 0 0;
#X connect 2 0 1 0;
#X connect 3 0 4 0;
#X connect 4 0 5 0;
#X connect 5 0 8 0;
#X connect 5 0 9 0;
#X connect 5 0 10 0;
#X connect 6 0 2 0;
#X connect 7 0 2 0;
#X connect 11 0 12 0;
#X restore 728 605 pd deathIncrease;
#X obj 729 577 bng 15 250 50 0 empty empty empty 17 7 0 10 -262144
-1 -1;
#X obj 22 38 nbx 5 25 -1e+37 1e+37 0 0 deathIncrease deathIncrease_rcv
deathIncrease 0 -8 0 20 -262144 -1 -1 1061 256;
#X obj 29 103 bng 40 250 50 0 playDeaths playDeaths_rcv playDeaths
0 45 0 10 -262144 -1 -1;
#X obj 86 248 r playDeath;
#X text 154 45 9/17 the number was 1202;
#X obj 472 19 notein;
#X obj 465 85 sel 54;
#X obj 464 108 bng 15 250 50 0 empty empty empty 17 7 0 10 -262144
-1 -1;
#X obj 463 61 stripnote;
#X obj 464 128 s playDeaths_rcv;
#X obj 102 113 nbx 5 25 -1e+37 1e+37 0 1 timing timing_rcv timing 0
-8 0 20 -262144 -1 -1 108 256;
#X obj 461 154 ctlin 16;
#X obj 476 243 ctlin 17;
#X obj 461 175 / 127;
#X obj 463 204 s master_grain_size_rcv;
#X obj 477 274 + 15;
#X obj 477 295 s timing_rcv;
#X obj 91 411 send;
#X msg 111 354 \$1_play_one_grain;
#X obj 111 376 symbol \$1;
#X obj 89 325 t b f;
#N canvas 524 43 377 427 playbackCounter 0;
#X obj 71 131 metro 1000;
#X obj 129 111 r timing;
#X obj 71 181 +;
#X msg 70 154 1;
#X floatatom 71 202 5 0 0 0 - - -;
#X obj 58 93 tgl 15 0 empty empty empty 17 7 0 10 -262144 -1 -1 0 1
;
#X obj 70 256 ==;
#X obj 91 230 r deathIncrease;
#X obj 67 284 sel 1;
#X msg 61 313 0;
#X obj 15 140 sel 0;
#X msg 15 161 0;
#X obj 109 160 bng 15 250 50 0 empty empty empty 17 7 0 10 -262144
-1 -1;
#X msg 65 72 1;
#X obj 61 36 r playDeaths;
#X obj 110 183 s playDeath;
#X msg 144 73 0;
#X obj 148 37 r stopDeaths;
#X connect 0 0 3 0;
#X connect 0 0 12 0;
#X connect 1 0 0 1;
#X connect 2 0 4 0;
#X connect 3 0 2 0;
#X connect 4 0 2 1;
#X connect 4 0 6 0;
#X connect 5 0 0 0;
#X connect 5 0 10 0;
#X connect 6 0 8 0;
#X connect 7 0 6 1;
#X connect 8 0 9 0;
#X connect 9 0 5 0;
#X connect 10 0 11 0;
#X connect 11 0 4 0;
#X connect 12 0 15 0;
#X connect 13 0 5 0;
#X connect 14 0 13 0;
#X connect 16 0 5 0;
#X connect 17 0 16 0;
#X restore 840 553 pd playbackCounter;
#X obj 32 160 bng 15 250 50 0 stopDeaths stopDeaths_rcv stopDeaths
17 7 0 10 -262144 -1 -1;
#N canvas 457 23 951 765 comport 0;
#X obj 17 396 + 2;
#X obj 146 437 + 2;
#X obj 44 223 list prepend;
#X obj 44 245 list trim;
#X msg 28 71 devices;
#X msg 157 90 close;
#X msg 100 68 open 2;
#X floatatom 52 315 5 0 0 0 - - -;
#X floatatom 107 321 5 0 0 0 - - -;
#X obj 33 33 loadbang;
#X msg 101 40 open 1;
#X floatatom 181 336 5 0 0 0 - - -;
#X msg 223 135 72;
#X msg 253 135 76;
#X obj 223 112 sel 1 0;
#X obj 246 79 tgl 15 0 empty empty empty 17 7 0 10 -262144 -1 -1 0
1;
#X obj 178 359 change;
#X obj 178 380 sel 0;
#X obj 136 482 / 1023;
#X obj 76 383 print;
#X obj 44 179 comport 0 9600;
#X msg 108 101 open 3;
#X obj 80 354 print;
#X obj 44 201 serial_print any;
#X obj 53 294 route analog0 analog1 digital0;
#X obj 178 410 s playDeaths_rcv;
#X obj 293 411 print playDeaths;
#X obj 254 46 metro 500;
#X obj 255 20 loadbang;
#X obj 52 466 / 4;
#X obj 52 508 s timing_rcv;
#X obj 136 503 s master_grain_size_rcv;
#X obj 52 487 + 50;
#X obj 346 35 r playDeath;
#X msg 375 157 1;
#X obj 407 96 t b b;
#X obj 438 264 tgl 15 0 empty empty empty 17 7 0 10 -262144 -1 -1 0
1;
#X obj 443 151 delay 40;
#X msg 443 172 0;
#X connect 0 0 29 0;
#X connect 1 0 18 0;
#X connect 2 0 3 0;
#X connect 3 0 24 0;
#X connect 4 0 20 0;
#X connect 5 0 20 0;
#X connect 6 0 20 0;
#X connect 7 0 22 0;
#X connect 7 0 29 0;
#X connect 8 0 1 0;
#X connect 9 0 4 0;
#X connect 10 0 20 0;
#X connect 11 0 16 0;
#X connect 12 0 20 0;
#X connect 13 0 20 0;
#X connect 14 0 12 0;
#X connect 14 1 13 0;
#X connect 15 0 14 0;
#X connect 16 0 17 0;
#X connect 17 0 25 0;
#X connect 17 0 26 0;
#X connect 18 0 31 0;
#X connect 20 0 23 0;
#X connect 21 0 20 0;
#X connect 23 0 2 0;
#X connect 23 1 2 1;
#X connect 24 0 7 0;
#X connect 24 1 8 0;
#X connect 24 2 11 0;
#X connect 29 0 32 0;
#X connect 32 0 30 0;
#X connect 33 0 35 0;
#X connect 34 0 36 0;
#X connect 35 0 34 0;
#X connect 35 1 37 0;
#X connect 36 0 14 0;
#X connect 37 0 38 0;
#X connect 38 0 36 0;
#X restore 89 445 pd comport;
#X obj 85 296 random 1;
#X connect 2 0 1 0;
#X connect 3 0 1 0;
#X connect 4 0 36 0;
#X connect 12 0 11 0;
#X connect 15 0 4 0;
#X connect 17 0 20 0;
#X connect 17 1 20 1;
#X connect 18 0 19 0;
#X connect 19 0 21 0;
#X connect 20 0 18 0;
#X connect 23 0 25 0;
#X connect 24 0 27 0;
#X connect 25 0 26 0;
#X connect 27 0 28 0;
#X connect 30 0 31 0;
#X connect 31 0 29 1;
#X connect 32 0 29 0;
#X connect 32 1 30 0;
#X connect 36 0 32 0;
