#N canvas 440 90 1235 754 12;
#X obj 257 127 json-decode;
#X msg 266 64 GET https://api.covidtracking.com/v1/us/current.json
;
#X obj 259 95 rest;
#X obj 335 180 list trim;
#X obj 350 219 route deathIncrease;
#X floatatom 292 259 5 0 0 0 - - -;
#X connect 0 0 3 0;
#X connect 1 0 2 0;
#X connect 2 0 0 0;
#X connect 3 0 4 0;
#X connect 4 0 5 0;
