#N canvas 437 194 892 585 10;
#X obj 240 70 r decoded;
#X obj 240 108 list trim;
#X obj 240 129 route \$1;
#X obj 369 86 symbol \$1;
#X obj 376 60 bng 15 250 50 0 empty empty empty 17 7 0 10 -262144 -1
-1;
#X obj 374 33 loadbang;
#X obj 232 338 tabwrite;
#X obj 300 177 bng 15 250 50 0 empty empty empty 17 7 0 10 -262144
-1 -1;
#X msg 300 197 1;
#X obj 300 218 + 1;
#X floatatom 274 255 5 0 0 0 - - -;
#X msg 259 201 0;
#X obj 252 174 r reset;
#X obj 302 157 t b;
#X obj 466 215 r listen_day;
#X floatatom 466 236 5 0 0 0 - - -;
#X obj 466 256 tabread;
#X floatatom 466 277 5 0 0 0 - - -;
#X obj 466 352 line;
#X floatatom 467 383 5 0 0 0 - - -;
#X obj 469 301 pack 0 0;
#X obj 513 277 r timing;
#X obj 466 457 outlet, f 20;
#X obj 468 410 i;
#N canvas 0 22 450 278 (subpatch) 0;
#X array \$0_country 70 float 3;
#A 0 1 1 2 2 5 5 5 5 5 7 8 8 11 11 11 11 11 11 11 11 12 12 13 13 13
13 13 13 13 13 15 15 15 51 51 57 58 60 68 74 98 118 149 217 262 402
518 583 959 1281 1663 2179 2727 3499 4632 6421 7783 13677 19100 25489
33276 43847 53740 65778 1 1 2 2 5 188172;
#X coords 0 4.5e+06 70 0 100 70 2 0 0;
#X restore 105 123 graph;
#X obj 396 199 i \$0;
#X obj 368 164 loadbang;
#X msg 352 222 set \$1_country;
#X obj 438 160 bng 15 250 50 0 empty empty empty 17 7 0 10 -262144
-1 -1;
#X obj 344 433 send;
#X msg 742 441 \; \$1_country size 30;
#X obj 741 399 i \$0;
#X obj 713 364 loadbang;
#X obj 783 360 bng 15 250 50 0 empty empty empty 17 7 0 10 -262144
-1 -1;
#X obj 389 287 r zero;
#X msg 389 308 0;
#X obj 108 193 hsl 95 10 0 64 0 0 empty listen_day empty -2 -8 0 10
-262144 -1 -1 0 1;
#X obj 609 273 bng 15 250 50 0 empty empty empty 17 7 0 10 -262144
-1 -1;
#X floatatom 640 280 5 0 0 0 - - -;
#X obj 672 210 r days;
#X obj 648 248 i;
#X obj 647 184 r reset_size;
#X obj 578 322 array size \$0_country;
#X obj 185 370 print fromroute;
#X connect 0 0 1 0;
#X connect 1 0 2 0;
#X connect 2 0 6 0;
#X connect 2 0 13 0;
#X connect 3 0 2 1;
#X connect 3 0 29 1;
#X connect 4 0 3 0;
#X connect 5 0 4 0;
#X connect 7 0 8 0;
#X connect 8 0 9 0;
#X connect 9 0 10 0;
#X connect 10 0 9 1;
#X connect 10 0 6 1;
#X connect 10 0 43 0;
#X connect 11 0 10 0;
#X connect 12 0 11 0;
#X connect 13 0 7 0;
#X connect 14 0 15 0;
#X connect 15 0 16 0;
#X connect 16 0 17 0;
#X connect 17 0 20 0;
#X connect 18 0 19 0;
#X connect 19 0 23 0;
#X connect 20 0 18 0;
#X connect 21 0 20 1;
#X connect 23 0 22 0;
#X connect 23 0 29 0;
#X connect 25 0 27 0;
#X connect 26 0 25 0;
#X connect 27 0 6 0;
#X connect 27 0 16 0;
#X connect 28 0 25 0;
#X connect 32 0 31 0;
#X connect 33 0 31 0;
#X connect 34 0 35 0;
#X connect 35 0 18 0;
#X connect 37 0 42 0;
#X connect 38 0 42 0;
#X connect 39 0 40 1;
#X connect 40 0 38 0;
#X connect 41 0 40 0;
#X coords 0 -1 1 1 110 110 1 100 100;
