#N canvas 4 90 1400 758 10;
#X declare -lib pof;
#X obj 21 241 pofjson testjson3;
#X obj 21 286 b;
#X obj 22 352 pofjson testjson3;
#X floatatom 22 373 5 0 0 0 - - -;
#X obj 190 10 declare -lib pof;
#X obj 21 265 route loaded error_running;
#X obj 97 291 bng 15 250 50 0 empty empty empty 17 7 0 10 -262144 -1
-1;
#X obj 22 389 bng 15 250 50 0 empty empty empty 17 7 0 10 -262144 -1
-1;
#N canvas 0 23 1078 689 symbol_to_int 0;
#X obj 46 38 pofjson testjson3;
#X symbolatom 71 89 15 0 0 0 - - -;
#X floatatom 71 273 5 0 0 0 - - -;
#X obj 71 110 list fromsymbol;
#X obj 131 249 f;
#X obj 157 249 + 1;
#X obj 71 249 - 48;
#X obj 26 134 route 45;
#X obj 76 310 *;
#N canvas 65 87 662 518 list-rdrip 0;
#X obj 123 97 t a a;
#X obj 123 254 spigot;
#X obj 162 162 bang;
#X obj 162 181 1;
#X obj 283 162 route bang;
#X obj 243 163 bang;
#X obj 243 182 0;
#X obj 162 127 list split 2;
#X obj 48 387 list split;
#X obj 115 339 list length;
#X obj 115 364 >> 1;
#X obj 91 32 inlet;
#X obj 350 188 outlet;
#X obj 91 66 t b a;
#X obj 459 150 outlet;
#X text 514 152 signal end of list;
#X obj 123 273 t a a;
#X text 155 29 Copyright 2009 by Mathieu Bouchard/Frank Barknecht;
#X connect 0 0 1 0;
#X connect 0 1 7 0;
#X connect 1 0 16 0;
#X connect 2 0 3 0;
#X connect 3 0 1 1;
#X connect 4 1 12 0;
#X connect 5 0 6 0;
#X connect 6 0 1 1;
#X connect 7 0 2 0;
#X connect 7 2 4 0;
#X connect 7 2 5 0;
#X connect 8 0 0 0;
#X connect 8 1 0 0;
#X connect 9 0 10 0;
#X connect 10 0 8 1;
#X connect 11 0 13 0;
#X connect 13 0 14 0;
#X connect 13 1 0 0;
#X connect 16 0 8 0;
#X connect 16 1 9 0;
#X restore 71 198 pd list-rdrip;
#X obj 116 300 pow;
#X obj 71 226 t f b b;
#X msg 116 272 10;
#X obj 76 344 +;
#X obj 76 372 t f f;
#X obj 88 400 f;
#X obj 146 224 t f f b;
#X obj 71 156 t a b;
#X obj 98 177 t f;
#X obj 26 156 t a b;
#X msg 53 177 1;
#X obj 88 426 list prepend;
#X obj 85 448 route 0 1;
#X obj 113 475 * -1;
#X obj 44 11 inlet;
#X obj 83 527 outlet;
#X connect 0 0 1 0;
#X connect 1 0 3 0;
#X connect 2 0 8 0;
#X connect 3 0 7 0;
#X connect 4 0 5 0;
#X connect 4 0 10 1;
#X connect 5 0 4 1;
#X connect 6 0 2 0;
#X connect 7 0 19 0;
#X connect 7 1 17 0;
#X connect 8 0 13 0;
#X connect 9 0 11 0;
#X connect 9 1 16 0;
#X connect 10 0 8 1;
#X connect 11 0 6 0;
#X connect 11 1 12 0;
#X connect 11 2 4 0;
#X connect 12 0 10 0;
#X connect 13 0 14 0;
#X connect 14 0 13 1;
#X connect 14 1 15 1;
#X connect 15 0 21 0;
#X connect 16 0 4 1;
#X connect 16 1 13 1;
#X connect 16 2 15 0;
#X connect 17 0 9 0;
#X connect 17 1 18 0;
#X connect 18 0 21 1;
#X connect 19 0 9 0;
#X connect 19 1 20 0;
#X connect 20 0 21 1;
#X connect 21 0 22 0;
#X connect 22 0 25 0;
#X connect 22 1 23 0;
#X connect 23 0 25 0;
#X connect 24 0 0 0;
#X restore 81 12 pd symbol_to_int;
#X obj 293 445 s master_date;
#X obj 324 381 hsl 128 15 0 127 0 0 empty empty empty -2 -8 0 10 -262144
-1 -1 4900 1;
#X obj 19 13 loadbang;
#X obj 220 262 tgl 15 0 empty empty empty 17 7 0 10 -262144 -1 -1 0
1;
#X obj 224 336 + 1;
#X msg 224 315 1;
#X floatatom 249 381 5 0 0 0 - - -;
#X msg 21 50 load https://datahub.io/core/covid-19/r/key-countries-pivoted.json
;
#X obj 580 212 pofjson testjson3;
#X floatatom 579 240 15 0 0 0 - - -;
#X floatatom 584 63 5 0 0 0 - - -;
#X msg 23 333 getsize;
#X obj 224 408 sel;
#X msg 226 437 0;
#X obj 304 290 sel 1;
#X msg 304 311 0;
#X obj 587 34 r master_date;
#X msg 45 134 load https://pkgstore.datahub.io/core/covid-19/key-countries-pivoted_json/data/48b5e1b888144500c292c4d5c132be3a/key-countries-pivoted_json.json
;
#X obj 583 158 pack f s;
#X obj 628 55 loadbang;
#X symbolatom 630 126 10 0 0 0 - - -;
#X msg 581 187 getf \$1 \$2;
#X obj 707 207 pofjson testjson3;
#X floatatom 706 235 15 0 0 0 - - -;
#X obj 710 153 pack f s;
#X symbolatom 757 121 10 0 0 0 - - -;
#X msg 708 182 getf \$1 \$2;
#X floatatom 716 67 5 0 0 0 - - -;
#X obj 719 38 r master_date;
#X msg 643 100 set China;
#X msg 758 95 set France;
#X obj 831 209 pofjson testjson3;
#X floatatom 830 237 15 0 0 0 - - -;
#X floatatom 835 60 5 0 0 0 - - -;
#X obj 838 31 r master_date;
#X obj 834 155 pack f s;
#X symbolatom 881 123 10 0 0 0 - - -;
#X msg 832 184 getf \$1 \$2;
#X obj 958 204 pofjson testjson3;
#X floatatom 957 232 15 0 0 0 - - -;
#X obj 961 150 pack f s;
#X symbolatom 1008 118 10 0 0 0 - - -;
#X msg 959 179 getf \$1 \$2;
#X floatatom 967 64 5 0 0 0 - - -;
#X obj 970 35 r master_date;
#X obj 569 442 pofjson testjson3;
#X floatatom 568 470 15 0 0 0 - - -;
#X floatatom 573 293 5 0 0 0 - - -;
#X obj 576 264 r master_date;
#X obj 572 388 pack f s;
#X symbolatom 619 356 10 0 0 0 - - -;
#X msg 570 417 getf \$1 \$2;
#X obj 696 437 pofjson testjson3;
#X floatatom 695 465 15 0 0 0 - - -;
#X obj 699 383 pack f s;
#X symbolatom 746 351 10 0 0 0 - - -;
#X msg 697 412 getf \$1 \$2;
#X floatatom 705 297 5 0 0 0 - - -;
#X obj 708 268 r master_date;
#X obj 820 439 pofjson testjson3;
#X floatatom 819 467 15 0 0 0 - - -;
#X floatatom 824 290 5 0 0 0 - - -;
#X obj 827 261 r master_date;
#X obj 823 385 pack f s;
#X symbolatom 870 353 10 0 0 0 - - -;
#X msg 821 414 getf \$1 \$2;
#X obj 947 434 pofjson testjson3;
#X floatatom 946 462 15 0 0 0 - - -;
#X obj 950 380 pack f s;
#X symbolatom 997 348 10 0 0 0 - - -;
#X msg 948 409 getf \$1 \$2;
#X floatatom 956 294 5 0 0 0 - - -;
#X obj 959 265 r master_date;
#X msg 618 331 set Germany;
#X msg 747 326 set Iran;
#X msg 869 328 set Italy;
#X msg 998 322 set Spain;
#X msg 1008 92 set US;
#X msg 879 98 set United_Kingdom;
#X obj 225 293 metro 500;
#X obj 629 76 t b b;
#X obj 761 55 loadbang;
#X obj 762 76 t b b;
#X obj 880 51 loadbang;
#X obj 881 72 t b b;
#X obj 1008 50 loadbang;
#X obj 1009 71 t b b;
#X obj 1044 271 loadbang;
#X obj 1045 292 t b b;
#X obj 865 281 loadbang;
#X obj 866 302 t b b;
#X obj 750 283 loadbang;
#X obj 751 304 t b b;
#X obj 619 287 loadbang;
#X obj 620 308 t b b;
#X connect 0 0 5 0;
#X connect 1 0 20 0;
#X connect 2 0 3 0;
#X connect 3 0 7 0;
#X connect 3 0 21 1;
#X connect 5 0 1 0;
#X connect 5 1 6 0;
#X connect 10 0 9 0;
#X connect 11 0 26 0;
#X connect 12 0 23 0;
#X connect 12 0 88 0;
#X connect 13 0 15 0;
#X connect 14 0 13 0;
#X connect 15 0 13 1;
#X connect 15 0 9 0;
#X connect 15 0 21 0;
#X connect 16 0 0 0;
#X connect 17 0 18 0;
#X connect 19 0 27 0;
#X connect 20 0 2 0;
#X connect 21 0 22 0;
#X connect 22 0 12 0;
#X connect 23 0 24 0;
#X connect 24 0 15 0;
#X connect 25 0 19 0;
#X connect 26 0 0 0;
#X connect 27 0 30 0;
#X connect 28 0 89 0;
#X connect 29 0 27 1;
#X connect 30 0 17 0;
#X connect 31 0 32 0;
#X connect 33 0 35 0;
#X connect 34 0 33 1;
#X connect 35 0 31 0;
#X connect 36 0 33 0;
#X connect 37 0 36 0;
#X connect 38 0 29 0;
#X connect 39 0 34 0;
#X connect 40 0 41 0;
#X connect 42 0 44 0;
#X connect 43 0 42 0;
#X connect 44 0 46 0;
#X connect 45 0 44 1;
#X connect 46 0 40 0;
#X connect 47 0 48 0;
#X connect 49 0 51 0;
#X connect 50 0 49 1;
#X connect 51 0 47 0;
#X connect 52 0 49 0;
#X connect 53 0 52 0;
#X connect 54 0 55 0;
#X connect 56 0 58 0;
#X connect 57 0 56 0;
#X connect 58 0 60 0;
#X connect 59 0 58 1;
#X connect 60 0 54 0;
#X connect 61 0 62 0;
#X connect 63 0 65 0;
#X connect 64 0 63 1;
#X connect 65 0 61 0;
#X connect 66 0 63 0;
#X connect 67 0 66 0;
#X connect 68 0 69 0;
#X connect 70 0 72 0;
#X connect 71 0 70 0;
#X connect 72 0 74 0;
#X connect 73 0 72 1;
#X connect 74 0 68 0;
#X connect 75 0 76 0;
#X connect 77 0 79 0;
#X connect 78 0 77 1;
#X connect 79 0 75 0;
#X connect 80 0 77 0;
#X connect 81 0 80 0;
#X connect 82 0 59 0;
#X connect 83 0 64 0;
#X connect 84 0 73 0;
#X connect 85 0 78 0;
#X connect 86 0 50 0;
#X connect 87 0 45 0;
#X connect 88 0 14 0;
#X connect 89 0 29 0;
#X connect 89 1 38 0;
#X connect 90 0 91 0;
#X connect 91 0 34 0;
#X connect 91 1 39 0;
#X connect 92 0 93 0;
#X connect 93 0 45 0;
#X connect 93 1 87 0;
#X connect 94 0 95 0;
#X connect 95 0 50 0;
#X connect 95 1 86 0;
#X connect 96 0 97 0;
#X connect 97 0 78 0;
#X connect 97 1 85 0;
#X connect 98 0 99 0;
#X connect 99 0 73 0;
#X connect 99 1 84 0;
#X connect 100 0 101 0;
#X connect 101 0 64 0;
#X connect 101 1 83 0;
#X connect 102 0 103 0;
#X connect 103 0 59 0;
#X connect 103 1 82 0;
